<?xml version="1.0" standalone="no"?>
<!DOCTYPE svg PUBLIC "-//W3C//DTD SVG 20010904//EN"
        "http://www.w3.org/TR/2001/REC-SVG-20010904/DTD/svg10.dtd">
<svg version="1.0" xmlns="http://www.w3.org/2000/svg"
     width="50.000000pt" height="50.000000pt" viewBox="0 0 50.000000 50.000000"
     preserveAspectRatio="xMidYMid meet">

    <g transform="translate(0.000000,50.000000) scale(0.100000,-0.100000)"
       fill="#000000" stroke="none">
        <path d="M16 444 c-24 -23 -24 -335 0 -358 12 -12 38 -16 116 -16 91 0 100 -2
105 -20 7 -26 19 -26 26 0 5 18 14 20 105 20 78 0 104 4 116 16 24 23 24 335
0 358 -20 20 -203 23 -222 4 -9 -9 -15 -9 -24 0 -19 19 -202 16 -222 -4z m222
-184 l2 -175 -107 5 -108 5 -3 160 c-1 87 0 165 3 172 3 11 29 13 107 11 l103
-3 3 -175z m237 5 l0 -170 -108 -5 -107 -5 0 171 c0 94 3 174 7 178 4 4 52 5
107 4 l101 -3 0 -170z"/>
        <path d="M104 402 c-33 -22 -45 -100 -19 -122 9 -8 15 -36 17 -83 3 -64 5 -72
23 -72 18 0 20 8 23 70 2 46 8 75 19 87 19 21 12 81 -13 109 -18 20 -32 23
-50 11z m44 -37 c16 -34 15 -57 -3 -81 -8 -11 -15 -45 -17 -79 l-2 -60 -3 59
c-2 33 -11 68 -19 80 -16 24 -18 45 -4 80 12 33 34 33 48 1z"/>
        <path d="M290 370 c0 -5 25 -10 55 -10 30 0 55 5 55 10 0 6 -25 10 -55 10 -30
0 -55 -4 -55 -10z"/>
        <path d="M420 370 c0 -5 7 -10 15 -10 8 0 15 5 15 10 0 6 -7 10 -15 10 -8 0
-15 -4 -15 -10z"/>
        <path d="M290 320 c0 -5 25 -10 55 -10 30 0 55 5 55 10 0 6 -25 10 -55 10 -30
0 -55 -4 -55 -10z"/>
        <path d="M420 320 c0 -5 7 -10 15 -10 8 0 15 5 15 10 0 6 -7 10 -15 10 -8 0
-15 -4 -15 -10z"/>
        <path d="M290 270 c0 -5 25 -10 55 -10 30 0 55 5 55 10 0 6 -25 10 -55 10 -30
0 -55 -4 -55 -10z"/>
        <path d="M420 270 c0 -5 7 -10 15 -10 8 0 15 5 15 10 0 6 -7 10 -15 10 -8 0
-15 -4 -15 -10z"/>
        <path d="M290 220 c0 -5 25 -10 55 -10 30 0 55 5 55 10 0 6 -25 10 -55 10 -30
0 -55 -4 -55 -10z"/>
        <path d="M420 220 c0 -5 7 -10 15 -10 8 0 15 5 15 10 0 6 -7 10 -15 10 -8 0
-15 -4 -15 -10z"/>
        <path d="M290 170 c0 -5 25 -10 55 -10 30 0 55 5 55 10 0 6 -25 10 -55 10 -30
0 -55 -4 -55 -10z"/>
        <path d="M420 170 c0 -5 7 -10 15 -10 8 0 15 5 15 10 0 6 -7 10 -15 10 -8 0
-15 -4 -15 -10z"/>
    </g>
</svg>
